<svg width="12" height="12" viewBox="0 0 12 12" fill="none" xmlns="http://www.w3.org/2000/svg">
<g id="icon/edit">
<g id="Vector">
<path fill-rule="evenodd" clip-rule="evenodd" d="M8.6679 1.33196L3.7929 6.20698C3.60536 6.39448 3.5 6.64888 3.5 6.91408V7.99988C3.5 8.27598 3.72386 8.49988 4 8.49988H5.0858C5.351 8.49988 5.60535 8.39453 5.7929 8.20698L10.6679 3.33196C11.0584 2.94143 11.0584 2.30827 10.6679 1.91774L10.0821 1.33195C9.6916 0.941432 9.0584 0.941432 8.6679 1.33196ZM5.26255 7.67663C5.2157 7.72353 5.1521 7.74988 5.0858 7.74988H4.25V6.91408C4.25 6.84778 4.27634 6.78418 4.32323 6.73728L9.1982 1.86229C9.29585 1.76465 9.45415 1.76466 9.5518 1.86229L10.1376 2.44807C10.2352 2.5457 10.2352 2.704 10.1376 2.80163L5.26255 7.67663Z" fill="#0177FF"/>
<path d="M5 1.87485C5 2.08196 4.8321 2.24985 4.625 2.24985H2C1.86193 2.24985 1.75 2.36178 1.75 2.49985V9.99988C1.75 10.1379 1.86193 10.2499 2 10.2499H9.5C9.63805 10.2499 9.75 10.1379 9.75 9.99988V7.37488C9.75 7.16773 9.9179 6.99988 10.125 6.99988C10.3321 6.99988 10.5 7.16773 10.5 7.37488V9.99988C10.5 10.5521 10.0523 10.9999 9.5 10.9999H2C1.44771 10.9999 1 10.5521 1 9.99988V2.49985C1 1.94757 1.44771 1.49985 2 1.49985H4.625C4.8321 1.49985 5 1.66774 5 1.87485Z" fill="#0177FF"/>
</g>
</g>
</svg>
